<?xml version="1.0" encoding="utf-8"?>
<!-- Svg Vector Icons : http://www.onlinewebfonts.com/icon -->
<!DOCTYPE svg PUBLIC "-//W3C//DTD SVG 1.1//EN" "http://www.w3.org/Graphics/SVG/1.1/DTD/svg11.dtd">
<svg version="1.1" xmlns="http://www.w3.org/2000/svg" xmlns:xlink="http://www.w3.org/1999/xlink" x="0px" y="0px" viewBox="0 0 1000 1000" enable-background="new 0 0 1000 1000" xml:space="preserve">
<metadata> Svg Vector Icons : http://www.onlinewebfonts.com/icon </metadata>
<g><path d="M958.4,306.7c19.9-19.9,30.4-44.5,31.5-73.9c1.1-29.3-8.3-53.9-28.2-73.8c-19.9-19.9-44.3-29.6-73-29c-28.8,0.5-53.1,10.8-73,30.7l-468,468l-161-159.3c-19.9-19.9-44.2-30.1-73-30.7c-28.8-0.6-53.1,9.1-73,29c-19.9,19.9-30.1,43.4-30.7,70.5c-0.6,27.1,9.1,50.6,29,70.5L269.7,841c19.9,19.9,45.9,29.6,78,29c32.1-0.6,58.1-10.8,78-30.7l-6.6,6.6L958.4,306.7z"/></g>
</svg>