<?xml version="1.0" encoding="utf-8"?>
<!-- Svg Vector Icons : http://www.onlinewebfonts.com/icon -->
<!DOCTYPE svg PUBLIC "-//W3C//DTD SVG 1.1//EN" "http://www.w3.org/Graphics/SVG/1.1/DTD/svg11.dtd">
<svg version="1.1" xmlns="http://www.w3.org/2000/svg" xmlns:xlink="http://www.w3.org/1999/xlink" x="0px" y="0px" viewBox="0 0 1000 1000" enable-background="new 0 0 1000 1000" xml:space="preserve">
<metadata> Svg Vector Icons : http://www.onlinewebfonts.com/icon </metadata>
<g><g transform="translate(0.000000,511.000000) scale(0.100000,-0.100000)"><path d="M7101.6,4383.4c-441.2-34.5-876.6-188-1266-446.9c-184.1-122.8-556.3-496.8-681-684.8c-191.8-289.7-322.3-602.3-395.2-943.8c-53.7-253.2-59.5-705.9-11.5-966.8c178.4-972.5,905.4-1776.3,1847.2-2041c611.9-172.6,1273.7-115.1,1839.6,161.1c283.9,140,510.2,305,734.7,537.1c448.9,468,692.5,1028.2,727,1668.8c65.2,1235.3-771.1,2357.5-1973.9,2649.1c-109.3,26.9-266.6,51.8-351,57.5c-84.4,5.8-184.1,13.4-220.6,17.3C7314.5,4393,7201.3,4391.1,7101.6,4383.4z M7640.6,3760c1271.8-222.5,2000.7-1567.2,1494.3-2756.5c-316.5-744.3-1118.3-1244.9-1918.2-1197c-738.5,42.2-1371.5,452.7-1688,1095.3c-143.9,289.6-193.7,483.4-205.2,799.9c-11.5,295.4,9.6,475.7,82.5,704C5714.7,3351.4,6671.9,3930.7,7640.6,3760z"/><path d="M7191.7,3140.4c-23-24.9-32.6-71-32.6-165c0-105.5-5.8-130.4-32.6-138.1c-19.2-5.7-88.2-36.4-153.5-67.1c-205.3-97.8-312.7-268.6-312.7-500.7c0-262.8,147.7-423.9,529.4-581.2c94-40.3,209.1-97.8,253.2-128.5c230.2-159.2,151.5-437.3-136.2-481.5c-95.9-15.4-259,15.3-408.6,76.7c-94,36.4-128.5,42.2-159.2,26.9c-44.1-24.9-115.1-203.3-101.7-257c11.5-46,97.8-82.5,320.3-138.1l172.6-42.2l5.8-132.4c5.8-155.4,40.3-199.5,157.3-199.5c118.9,0,151.5,44.1,157.3,207.2l5.7,140l99.8,34.5c266.6,90.2,418.2,297.3,418.2,567.8c-1.9,306.9-155.4,473.8-606.1,659.9c-170.7,71-297.3,170.7-314.6,249.4c-17.3,80.6,32.6,184.2,109.3,226.4c94,49.9,297.3,44.1,458.4-11.5c71-24.9,142-40.3,159.2-34.5c40.3,15.4,105.5,159.2,107.4,228.3c0,65.2-28.8,80.6-245.5,136.2l-166.9,42.2l-5.8,124.7c-7.7,157.3-36.5,191.8-157.3,191.8C7249.3,3175,7212.8,3163.4,7191.7,3140.4z"/><path d="M4435.3-1058.5c-368.3-38.4-652.2-74.8-1005.1-128.5c-322.3-49.9-427.8-72.9-454.6-99.8c-30.7-32.6-42.2-166.9-117-1315.9c-86.3-1356.2-86.3-1338.9,5.8-1338.9c19.2,0,97.8,48,174.6,105.5c151.5,115.1,303.1,182.2,410.5,182.2c36.4,0,274.3-38.4,529.4-86.3c1371.5-257.1,2585.7-431.6,3002-431.6c191.8,0,232.1,5.8,379.8,59.5c619.6,224.4,2090.9,1085.7,2355.6,1377.3c82.5,92.1,157.3,232.1,174.6,331.8c28.8,153.5-74.8,335.7-212.9,381.7c-109.3,34.5-209.1,9.6-475.7-126.6c-581.2-293.5-1302.5-525.6-1908.6-615.7c-669.5-97.8-1782,132.3-1912.5,395.1c-42.2,84.4-5.8,88.2,268.6,42.2c671.4-118.9,730.8-124.7,1049.3-126.6c276.2-1.9,333.8,3.8,452.7,40.3c239.8,76.7,372.1,214.8,372.1,389.4c0,92.1-55.6,209.1-117,247.4c-25,13.4-161.1,63.3-305,107.4c-142,44.1-439.3,136.2-661.8,207.2C5350.3-1121.8,4834.3-1016.3,4435.3-1058.5z"/><path d="M512.5-1158.3c-143.9-65.2-132.4-11.5-289.7-1436.7C69.4-3985.7,69.4-3970.4,169.2-4016.4c32.6-15.3,316.5-21.1,934.2-21.1c832.5,0,890.1,1.9,945.7,36.5c32.6,19.2,69.1,61.4,80.6,90.1c11.5,30.7,65.2,611.9,117,1292.9c86.3,1129.8,92.1,1243,67.1,1298.6c-51.8,107.4-86.3,113.2-861.3,147.7c-389.4,17.3-744.3,36.5-786.5,40.3C616.1-1125.7,562.4-1135.3,512.5-1158.3z M1375.7-2888.5c113.2-30.7,247.5-176.5,278.1-303.1c36.4-149.6,0-272.4-115.1-385.6c-170.7-172.6-400.9-172.6-575.5-1.9c-174.6,168.8-178.4,395.1-13.4,571.6C1070.7-2882.8,1208.8-2842.5,1375.7-2888.5z"/></g></g>
</svg>