<?xml version="1.0" encoding="utf-8"?>
<!-- Svg Vector Icons : http://www.onlinewebfonts.com/icon -->
<!DOCTYPE svg PUBLIC "-//W3C//DTD SVG 1.1//EN" "http://www.w3.org/Graphics/SVG/1.1/DTD/svg11.dtd">
<svg version="1.1" xmlns="http://www.w3.org/2000/svg" xmlns:xlink="http://www.w3.org/1999/xlink" x="0px" y="0px" viewBox="0 0 1000 1000" enable-background="new 0 0 1000 1000" xml:space="preserve">
<metadata> Svg Vector Icons : http://www.onlinewebfonts.com/icon </metadata>
<g><g transform="translate(0.000000,511.000000) scale(0.100000,-0.100000)"><path d="M1551.9,110v-4900h3538.9h3538.9v453.7v453.7h635.2H9900v1724.1v1724.1h-635.2h-635.2v272.2V110h635.2H9900v1088.9v1088.9h-635.2h-635.2v358.4v356.2l-1005,1004.9L6622,5010H4085.8H1551.9V110z M6633.3,3921.1v-907.4h907.4h907.4v-363v-363H7268.5H6088.9V1198.9V110h1179.6h1179.6v-272.2v-272.2H5544.4H2640.7v-1724.1v-1724.1h2903.7h2903.7v-363v-363H5090.7H1733.3V110v4718.5h2450h2450V3921.1z M7506.7,3875.7l680.5-680.6h-687.4h-685.1v680.6c0,374.3,2.3,680.6,6.8,680.6C6823.9,4556.3,7132.4,4250,7506.7,3875.7z M9718.5,1198.9V291.5H7994.4H6270.4v907.4v907.4h1724.1h1724.1V1198.9z M9718.5-650c0-22.7-562.6-315.3-1637.9-853c-1558.5-780.4-1646.9-821.2-1787.6-832.5l-147.5-9.1L4485-1514.2C3387.1-967.5,2822.2-672.6,2822.2-650c0,29.5,392.5,34,3448.1,34C9319.3-615.9,9718.5-620.5,9718.5-650z M6141.1-2501.1c251.8-45.4,265.4-38.6,1985,818.9l1592.5,794v-1406.5v-1406.5H6270.4H2822.2v1406.5v1406.5l1594.8-794C5628.4-2287.8,6041.3-2482.9,6141.1-2501.1z"/><path d="M2851.7,4172.9c-111.2-29.5-272.2-131.6-331.2-213.2c-111.2-147.5-138.4-224.6-138.4-401.5c-2.3-149.7,6.8-186,68.1-294.9c258.6-458.2,914.2-435.6,1125.2,38.6c174.7,394.7-88.5,846.2-517.2,880.2C2985.6,4186.5,2892.5,4182,2851.7,4172.9z M3180.6,3977.8c424.2-179.2,331.2-823.5-127-868.8c-349.4-31.8-603.4,304-469.6,626.1C2681.6,3964.2,2949.3,4073.1,3180.6,3977.8z"/><path d="M2459.3,2378.5v-90.7h1451.9H5363v90.7v90.7H3911.1H2459.3V2378.5z"/><path d="M2459.3,1834.1v-90.7h1451.9H5363v90.7v90.7H3911.1H2459.3V1834.1z"/><path d="M7025.8,1813.7c-111.1-29.5-272.2-131.6-331.2-213.2c-113.4-147.5-138.4-224.6-138.4-401.5c0-145.2,9.1-188.3,65.8-290.4c120.2-220.1,299.5-328.9,546.7-331.2c682.8-6.8,880.2,887,265.4,1197.8C7347.9,1818.2,7127.9,1838.6,7025.8,1813.7z M7354.7,1618.6c111.2-47.6,183.8-118,233.7-226.9c79.4-170.1,36.3-406.1-95.3-526.3c-170.1-156.5-460.5-156.5-630.7,0c-172.4,158.8-181.5,471.9-18.1,648.8C6962.3,1641.3,7186.9,1686.6,7354.7,1618.6z"/><path d="M8266.7,1652.6v-90.7h544.4h544.4v90.7v90.7h-544.4h-544.4V1652.6z"/><path d="M8266.7,1289.6v-90.7h544.4h544.4v90.7v90.7h-544.4h-544.4V1289.6z"/><path d="M3759.1-1997.5c-111.2-29.5-272.2-131.6-331.2-213.2c-113.4-147.5-138.4-224.6-138.4-401.5c0-145.2,9.1-188.3,65.8-290.4c122.5-226.9,299.5-331.2,555.8-331.2s433.3,104.4,555.8,331.2c56.7,102.1,65.8,145.2,65.8,290.4c0,145.2-9.1,188.3-65.8,290.4c-72.6,131.6-152,208.7-285.8,279C4081.2-1992.9,3868-1970.2,3759.1-1997.5z M4088.1-2192.5c111.2-47.6,183.8-118,233.7-226.8c79.4-170.1,36.3-406.1-95.3-526.3c-170.1-156.5-460.5-156.5-630.6,0c-172.4,158.8-181.5,471.9-18.2,648.8C3695.6-2169.9,3920.2-2124.5,4088.1-2192.5z"/><path d="M100,568.2v-3711.3l176.9-619.3c95.3-340.3,179.2-619.3,186-619.3s90.7,279,188.3,619.3l174.7,619.3V207.5v3350.6h90.7h90.7V2110.8V663.5l90.7-88.5l93-90.7l-6.8,1599.3c-6.8,1597-6.8,1599.3-56.7,1692.3c-90.7,170.1-172.4,220-617,367.5L100,4279.5V568.2z M590,3934.7c161.1-54.4,270-104.4,304-138.4l52.2-56.7h-70.3c-97.6,0-177-40.8-206.4-106.6c-18.2-38.6-25-469.6-25-1424.6V835.9H463H281.5v1601.6c0,1272.6,6.8,1599.3,29.5,1592.5C324.6,4023.2,451.6,3980.1,590,3934.7z M644.4-1160.4v-1814.8H463H281.5v1814.8V654.4H463h181.5V-1160.4z M594.5-3320c-27.2-90.7-63.5-226.9-86.2-299.5c-20.4-74.9-43.1-127-49.9-113.4c-6.8,11.3-45.4,133.9-83.9,270c-40.8,138.4-77.1,263.1-81.7,279c-6.8,20.4,36.3,27.2,170.1,27.2h176.9L594.5-3320z"/></g></g>
</svg>