<?xml version="1.0" encoding="utf-8"?>
<!-- Svg Vector Icons : http://www.onlinewebfonts.com/icon -->
<!DOCTYPE svg PUBLIC "-//W3C//DTD SVG 1.1//EN" "http://www.w3.org/Graphics/SVG/1.1/DTD/svg11.dtd">
<svg version="1.1" xmlns="http://www.w3.org/2000/svg" xmlns:xlink="http://www.w3.org/1999/xlink" x="0px" y="0px" viewBox="0 0 1000 1000" enable-background="new 0 0 1000 1000" xml:space="preserve">
<metadata> Svg Vector Icons : http://www.onlinewebfonts.com/icon </metadata>
<g><g transform="translate(0.000000,512.000000) scale(0.100000,-0.100000)"><path d="M4534.6,5003.8c-1226.5-126.5-2328.4-680.3-3156.3-1582.9C188.3,2119.7-208.4,266.5,347.3-1414.1c243.4-741.6,617.1-1351,1174.7-1914.5c781.9-789.5,1732.4-1261,2878.4-1423.9c226.1-32.6,981.2-32.6,1207.3,0c939,134.2,1778.4,490.6,2472.1,1052.1c986.9,797.2,1609.8,1914.5,1795.6,3215.7c32.6,226.1,32.6,981.2,0,1207.3c-134.1,939-479.1,1757.3-1034.8,2453c-281.7,350.7-724.4,762.7-1080.8,1002.3C7137,4597.6,6462.5,4858.2,5694,4977C5452.5,5013.4,4779.9,5030.7,4534.6,5003.8z M5684.4,4356.1c272.1-46,647.7-147.6,862.4-231.9c1291.6-507.8,2261.3-1594.4,2604.4-2912.9c109.2-419.7,134.2-626.7,134.2-1082.8c1.9-459.9-26.8-691.8-134.2-1101.9c-389-1487.1-1567.6-2665.7-3054.7-3054.7c-410.1-107.3-642-136.1-1101.9-134.1c-456.1,0-663.1,24.9-1082.8,134.1C2426.6-3641,1244.2-2458.5,857.1-973.3C747.8-549.8,722.9-346.7,722.9,119s24.9,668.8,134.2,1092.3c348.8,1341.5,1356.8,2451,2671.4,2937.8c306.6,115,778.1,218.5,1130.7,251C4866.1,4419.3,5460.2,4392.5,5684.4,4356.1z"/><path d="M4611.3,3777.3c-927.5-95.8-1818.6-571.1-2420.4-1291.6C644.4,640.2,1246.1-2148.1,3415.4-3196.4c1824.4-879.6,4018.6-107.3,4902.1,1724.7c728.2,1510.1,337.3,3328.8-946.7,4403.8C6602.4,3576.1,5607.8,3880.8,4611.3,3777.3z M5291.6,2918.8v-264.5l120.7-23c563.4-107.3,962-475.3,1132.6-1046.3c9.6-36.4-26.8-55.6-381.4-199.3c-216.5-88.2-396.7-157.1-400.5-153.3c-1.9,3.8-42.2,84.3-88.2,180.1c-105.4,222.3-264.5,389-421.6,442.7c-128.4,44.1-343,44.1-442.7,1.9c-95.8-40.2-222.3-157.1-272.1-251c-57.5-113.1-57.5-335.4,1.9-446.5c74.7-141.8,205.1-214.6,732.1-415.8c517.4-197.4,843.2-364.1,1008-517.4C6520,4,6646.5-237.5,6690.5-570.9c40.2-297-11.5-615.2-147.6-900.7c-72.8-151.4-113.1-207-253-346.9c-139.9-138-195.5-180.1-346.9-252.9c-161-78.6-356.5-138-578.8-176.3l-72.8-11.5v-343v-345h-287.5h-287.5v343v343l-126.5,21.1c-356.4,63.3-597.9,184-835.5,423.5C3609-1669,3576.4-1623,3482.5-1431.4c-57.5,120.7-122.6,279.8-141.8,356.5l-38.3,138l59.4,19.2c153.3,47.9,824,214.6,831.7,207c3.8-5.8,21.1-59.4,36.4-120.8c70.9-268.3,210.8-448.4,425.4-550c122.7-59.4,139.9-61.3,367.9-61.3c224.2,0,247.2,3.8,348.8,53.7c187.8,92,287.5,260.6,287.5,494.4c1.9,151.4-51.7,279.8-145.7,352.6c-92,70.9-389,205.1-701.4,316.2c-339.2,120.7-701.4,293.2-843.2,400.5c-385.2,289.4-571.1,822.1-471.4,1347.2c101.6,528.9,413.9,898.8,887.3,1046.3c103.5,32.6,220.4,65.2,260.6,70.9l70.9,11.5v266.4v268.3h287.5h287.5V2918.8z"/></g></g>
</svg>