<?xml version="1.0" encoding="utf-8"?>
<!-- Svg Vector Icons : http://www.onlinewebfonts.com/icon -->
<!DOCTYPE svg PUBLIC "-//W3C//DTD SVG 1.1//EN" "http://www.w3.org/Graphics/SVG/1.1/DTD/svg11.dtd">
<svg version="1.1" xmlns="http://www.w3.org/2000/svg" xmlns:xlink="http://www.w3.org/1999/xlink" x="0px" y="0px" viewBox="0 0 1000 1000" enable-background="new 0 0 1000 1000" xml:space="preserve">
<metadata> Svg Vector Icons : http://www.onlinewebfonts.com/icon </metadata>
<g><path d="M309.4,472.8H200.6v108.9h108.9V472.8z M282.2,554.4h-54.4V500h54.4V554.4z"/><path d="M554.4,472.8H445.6v108.9h108.9V472.8z M527.2,554.4h-54.4V500h54.4V554.4z"/><path d="M799.4,472.8H690.6v108.9h108.9V472.8L799.4,472.8z M772.2,554.4h-54.4V500h54.4V554.4z"/><path d="M309.4,717.8H200.6v108.9h108.9V717.8z M282.2,799.4h-54.4V745h54.4V799.4z"/><path d="M554.4,717.8H445.6v108.9h108.9V717.8z M527.2,799.4h-54.4V745h54.4V799.4z"/><path d="M799.4,717.8H690.6v108.9h108.9V717.8L799.4,717.8z M772.2,799.4h-54.4V745h54.4V799.4z"/><path d="M908.3,118.9H772.2V78.1c0-37.4-30.6-68.1-68.1-68.1c-37.4,0-68.1,30.6-68.1,68.1v40.8H363.9V78.1c0-37.4-30.6-68.1-68.1-68.1c-37.4,0-68.1,30.6-68.1,68.1v40.8H91.7c-45.1,0-81.7,36.6-81.7,81.7v707.8c0,45.1,36.6,81.7,81.7,81.7h816.7c45.1,0,81.7-36.6,81.7-81.7V200.6C990,155.4,953.4,118.9,908.3,118.9z M690.6,78.1c0-7.4,6.2-13.6,13.6-13.6c7.4,0,13.6,6.2,13.6,13.6v136.1c0,7.4-6.2,13.6-13.6,13.6c-7.4,0-13.6-6.2-13.6-13.6V78.1z M282.2,78.1c0-7.4,6.2-13.6,13.6-13.6c7.4,0,13.6,6.2,13.6,13.6v136.1c0,7.4-6.2,13.6-13.6,13.6c-7.4,0-13.6-6.2-13.6-13.6V78.1z M935.6,908.3c0,15-12.2,27.2-27.2,27.2H91.7c-15,0-27.2-12.2-27.2-27.2V363.9h871.1V908.3z M935.6,336.7H64.4V200.6c0-15,12.2-27.2,27.2-27.2h136.1v40.8c0,37.4,30.6,68.1,68.1,68.1c37.4,0,68.1-30.6,68.1-68.1v-40.8h272.2v40.8c0,37.4,30.6,68.1,68.1,68.1c37.4,0,68.1-30.6,68.1-68.1v-40.8h136.1c15,0,27.2,12.2,27.2,27.2V336.7z"/></g>
</svg>