<?xml version="1.0" encoding="utf-8"?>
<!-- Svg Vector Icons : http://www.onlinewebfonts.com/icon -->
<!DOCTYPE svg PUBLIC "-//W3C//DTD SVG 1.1//EN" "http://www.w3.org/Graphics/SVG/1.1/DTD/svg11.dtd">
<svg version="1.1" xmlns="http://www.w3.org/2000/svg" xmlns:xlink="http://www.w3.org/1999/xlink" x="0px" y="0px" viewBox="0 0 1000 1000" enable-background="new 0 0 1000 1000" xml:space="preserve">
<metadata> Svg Vector Icons : http://www.onlinewebfonts.com/icon </metadata>
<g><path d="M108.4,163.5v720.2h720.2v-26.9c0-119.8-0.1-239.7,0.1-359.6c0.1-40.2,27.8-61.2,64.4-50c21.4,6.6,31.3,23,31.4,43.6c0.6,134.1,1,268.2,0,402.4c-0.3,41.8-36.5,79.8-77.9,86.8c-5,0.8-10,1.5-15,1.5c-242.2,0.1-484.5,0.3-726.8,0c-38.7,0-67.6-19.2-84-54c-6.5-13.8-10.3-30.4-10.3-45.8C9.9,643.5,10,405.5,10.1,167.4c0-55.5,34.3-94.1,89.5-99.2c30.8-2.8,61.9-1.8,92.9-1.8c109-0.2,217.9-0.2,326.9,0.1c13.3,0,27,1.1,39.7,4.5c21.6,5.8,30.2,23.2,30.1,44c-0.1,20.8-8.9,38.1-30.6,43.7c-12.8,3.3-26.4,4.4-39.7,4.5c-126.6,0.3-253.2,0.2-379.7,0.2L108.4,163.5L108.4,163.5z"/><path d="M990,177.6c-11,16-18.8,31.9-30.5,43.8c-102,103-204.7,205.3-307.2,307.8c-31.4,31.4-64.6,61.2-93.8,94.5c-51.8,59.2-113.6,102.4-187,130.6c-36.6,14.1-71.5,32.9-107,49.6c-20.8,9.8-41.9,9.7-58.6-5.8c-18.4-17-19.9-38.6-8.8-62c30.8-64.1,60-128.9,91-193c6.8-13.9,17-27,28.1-38c156-156.7,312.5-313,468.9-469.5c22.5-22.5,53.6-23.1,75.6-1.3c33.9,33.7,68,67.1,101,101.7C972.2,147.1,979.2,161.5,990,177.6 M712.9,245.9c-3,2.5-6.3,4.9-9.1,7.8c-106.1,106-213.1,211-317.2,318.9c-21.2,21.9-31,54.7-46.1,82.5c45.1-14,83.2-31.6,114.7-64.4c92.6-95.7,187.7-189,282.2-282.9c6.3-6.3,15.9-9.4,24.2-14C740.8,273.3,727.3,260,712.9,245.9 M823.6,214.5c14.6-13.3,27.8-25.3,39.9-36.3c-14-14.4-27.1-28-39.9-41.2c-12.9,12.9-25.8,25.7-38,37.9C798.7,188.5,811.7,202.2,823.6,214.5"/></g>
</svg>