<?xml version="1.0" encoding="utf-8"?>
<!-- Svg Vector Icons : http://www.onlinewebfonts.com/icon -->
<!DOCTYPE svg PUBLIC "-//W3C//DTD SVG 1.1//EN" "http://www.w3.org/Graphics/SVG/1.1/DTD/svg11.dtd">
<svg version="1.1" xmlns="http://www.w3.org/2000/svg" xmlns:xlink="http://www.w3.org/1999/xlink" x="0px" y="0px" viewBox="0 0 1000 1000" enable-background="new 0 0 1000 1000" xml:space="preserve">
<metadata> Svg Vector Icons : http://www.onlinewebfonts.com/icon </metadata>
<g><g transform="translate(0.000000,512.000000) scale(0.100000,-0.100000)"><path d="M5268,4935.7c-266.6-91.5-486.4-167.3-490.3-171.2c-3.9-3.9,54.5-188.8,128.4-412.5c75.9-223.8,136.2-414.5,136.2-420.3c0-15.6-367.8-142-379.4-132.3c-1.9,3.9-64.2,186.8-136.2,406.7c-72,219.9-138.2,406.7-145.9,414.5c-7.8,7.8-243.2-60.3-521.5-151.8c-449.5-147.9-511.7-173.2-521.5-212.1c-11.7-46.7,708.3-2274.6,762.8-2360.3c15.6-25.3,42.8-44.7,58.4-44.7c17.5,0,577.9,179,1245.3,398.9c982.6,325,1214.2,406.7,1223.9,437.8c11.7,38.9-731.6,2338.9-772.5,2389.4c-11.7,11.7-38.9,23.4-62.3,21.4C5772,5099.2,5534.6,5025.2,5268,4935.7z"/><path d="M2580.9,3912.2c-118.7-66.2-262.7-149.8-321.1-188.7c-60.3-40.9-570.1-348.3-1132.5-684.9L101.9,2425.6l-1.9-414.5v-416.4l62.3,15.6c704.4,157.6,2636.6,564.3,2646.3,554.6c9.7-9.7,433.9-1290.1,1389.3-4187.4l105.1-321.1l132.3,13.6c124.5,13.6,412.5-5.9,451.4-31.1c11.7-5.8,19.5-1.9,19.5,11.7c0,33.1-2082,6347.2-2099.5,6364.7C2798.8,4023.1,2697.7,3976.4,2580.9,3912.2z"/><path d="M8068.1,2793.4c-435.9-132.3-3765.1-1245.3-3788.5-1266.7c-19.5-17.5-35-58.4-35-91.4c0-33.1,210.1-698.5,468.9-1480.8c760.8-2311.6,719.9-2194.9,780.3-2227.9c50.6-27.2,87.6-17.5,827,227.7c426.1,140.1,1284.2,424.2,1908.8,630.4c1056.6,350.2,1138.3,379.4,1163.6,430c27.3,52.5,9.7,112.9-373.6,1276.4c-873.7,2650.2-807.5,2461.4-873.7,2486.7C8114.8,2789.5,8079.7,2797.3,8068.1,2793.4z M7095.2,974.1c332.7-181,611-338.6,618.8-346.4c9.7-9.7-29.2-101.2-85.6-204.3l-103.1-186.8l-145.9,81.7c-81.7,44.7-204.3,110.9-272.4,147.9c-120.6,66.2-122.6,68.1-109,21.4c7.8-25.3,109-336.6,225.7-690.8s212.1-653.8,212.1-665.5c0-19.5-424.2-171.2-435.9-157.6c-3.9,3.9-110.9,321.1-237.4,702.4C6636,59.5,6527,365,6519.2,357.2c-5.9-7.8-62.3-122.6-122.6-256.9c-62.3-134.2-118.7-249.1-126.5-258.8C6254.6-174,5879-8.6,5879,12.8c0,11.7,463.1,1025.4,556.5,1222c19.5,38.9,38.9,72,46.7,72C6488.1,1306.8,6764.4,1157,7095.2,974.1z"/><path d="M7671.1-2119.8c-1105.2-371.7-2013.9-681-2019.7-686.9c-5.8-3.9,21.4-50.6,60.3-101.2c62.3-79.8,118.7-184.9,198.5-369.7c17.5-38.9,81.7-19.5,1998.3,626.5c1091.6,365.8,1984.7,669.4,1990.5,673.3c15.6,17.5-167.3,531.2-190.7,533.2C9694.7-1442.6,8778.3-1746.2,7671.1-2119.8z"/><path d="M4269.9-2672.4c-280.2-75.9-583.7-323-702.4-575.9c-169.3-358-153.7-739.4,44.8-1079.9c77.8-134.3,270.5-317.2,412.5-393.1c449.5-237.4,951.5-165.4,1311.5,190.7c227.7,225.7,328.8,463.1,328.8,778.3c0,200.4-37,352.2-126.5,523.4c-136.2,258.8-352.2,439.7-636.3,535.1c-120.6,40.9-184.8,50.6-340.5,48.7C4456.7-2645.1,4324.3-2658.7,4269.9-2672.4z"/></g></g>
</svg>