<?xml version="1.0" encoding="utf-8"?>
<!-- Svg Vector Icons : http://www.onlinewebfonts.com/icon -->
<!DOCTYPE svg PUBLIC "-//W3C//DTD SVG 1.1//EN" "http://www.w3.org/Graphics/SVG/1.1/DTD/svg11.dtd">
<svg version="1.1" xmlns="http://www.w3.org/2000/svg" xmlns:xlink="http://www.w3.org/1999/xlink" x="0px" y="0px" viewBox="0 0 1000 1000" enable-background="new 0 0 1000 1000" xml:space="preserve">
<metadata> Svg Vector Icons : http://www.onlinewebfonts.com/icon </metadata>
<g><path d="M10,114.8h281.9v210.1H10V114.8z"/><path d="M356.9,114.8h281.9v210.1H356.9V114.8z"/><path d="M708.1,114.8H990v210.1H708.1V114.8L708.1,114.8z"/><path d="M10,395h281.9V605H10V395z"/><path d="M356.9,395h281.9V605H356.9V395z"/><path d="M708.1,395H990V605H708.1V395L708.1,395z"/><path d="M10,675.1h281.9v210.1H10V675.1z"/><path d="M356.9,675.1h281.9v210.1H356.9V675.1z"/><path d="M708.1,675.1H990v210.1H708.1V675.1L708.1,675.1z"/></g>
</svg>