<?xml version="1.0" encoding="utf-8"?>
<!-- Svg Vector Icons : http://www.onlinewebfonts.com/icon -->
<!DOCTYPE svg PUBLIC "-//W3C//DTD SVG 1.1//EN" "http://www.w3.org/Graphics/SVG/1.1/DTD/svg11.dtd">
<svg version="1.1" xmlns="http://www.w3.org/2000/svg" xmlns:xlink="http://www.w3.org/1999/xlink" x="0px" y="0px" viewBox="0 0 1000 1000" enable-background="new 0 0 1000 1000" xml:space="preserve">
<metadata> Svg Vector Icons : http://www.onlinewebfonts.com/icon </metadata>
<g><g><g><path d="M272.2,573.2c0-50.8,16.8-97.7,44.9-135.5c-29.5-26.5-68.4-42.8-111.2-42.8c-92,0-166.6,74.6-166.6,166.6c0,0,39.2,350.1,166.6,350.1c49.2,0,85.3-52.4,111-116.5c-30-98.8-42.2-197.4-44.5-218.6L272.2,573.2z"/><path d="M205.9,382.7c55.7,0,104.2-31,129.2-76.7c-24.9-33.9-39.8-75.6-39.8-120.8c0-20.5,3.1-40.3,8.8-59c-26.1-23.4-60.4-37.8-98.2-37.8c-81.3,0-147.2,65.9-147.2,147.2C58.8,316.8,124.7,382.7,205.9,382.7z"/><path d="M794.1,394.8c-42.8,0-81.7,16.3-111.2,42.8c28.2,37.9,44.9,84.8,44.9,135.5l-0.2,3.3c-2.4,21.2-14.5,119.8-44.5,218.6c25.7,64.2,61.8,116.5,111,116.5c127.4,0,166.6-350.1,166.6-350.1C960.7,469.4,886.1,394.8,794.1,394.8z"/><path d="M664.8,306c25,45.7,73.5,76.7,129.2,76.7c81.3,0,147.2-65.9,147.2-147.2c0-81.3-65.9-147.2-147.2-147.2c-37.8,0-72.2,14.4-98.2,37.8c5.6,18.7,8.8,38.5,8.8,59C704.6,230.4,689.8,272.1,664.8,306z"/><path d="M500,374.8c-109.6,0-198.4,88.8-198.4,198.4c0,0,46.7,416.8,198.4,416.8c151.7,0,198.4-416.8,198.4-416.8C698.4,463.6,609.6,374.8,500,374.8z"/><path d="M500,10c96.8,0,175.2,78.4,175.2,175.2c0,96.8-78.4,175.2-175.2,175.2c-96.8,0-175.2-78.4-175.2-175.2C324.8,88.4,403.2,10,500,10z"/></g></g><g></g><g></g><g></g><g></g><g></g><g></g><g></g><g></g><g></g><g></g><g></g><g></g><g></g><g></g><g></g></g>
</svg>