<?xml version="1.0" encoding="utf-8"?>
<!-- Svg Vector Icons : http://www.onlinewebfonts.com/icon -->
<!DOCTYPE svg PUBLIC "-//W3C//DTD SVG 1.1//EN" "http://www.w3.org/Graphics/SVG/1.1/DTD/svg11.dtd">
<svg version="1.1" xmlns="http://www.w3.org/2000/svg" xmlns:xlink="http://www.w3.org/1999/xlink" x="0px" y="0px" viewBox="0 0 1000 1000" enable-background="new 0 0 1000 1000" xml:space="preserve">
<metadata> Svg Vector Icons : http://www.onlinewebfonts.com/icon </metadata>
<g><g transform="translate(0.000000,512.000000) scale(0.100000,-0.100000)"><path d="M5049.9,5002.6c-53.6-21.1-114.9-91.9-572.6-664.5L4079,3838.3l-109.2,36.4c-1082,358.1-1407.5,455.8-1453.5,444.3c-78.5-19.2-132.1-59.4-155.1-116.8c-11.5-28.7-55.5-369.6-97.7-758.4c-42.1-388.8-80.4-710.5-84.3-714.3c-3.8-5.7-344.7-97.7-754.5-206.8c-411.7-109.2-766-210.7-787.1-224.1c-46-28.7-97.7-126.4-97.7-183.8c0-23,139.8-317.9,308.3-658.8c170.4-340.9,316-637.7,325.6-660.7c13.4-36.4-51.7-116.8-519-628.1C76.6-468.6,63.2-487.8,124.5-618c24.9-53.6,132.1-124.5,660.7-442.4l630-377.3l-103.4-595.6c-180-1049.5-170.4-976.7-134.1-1055.2c61.3-128.3,67-130.2,875.2-99.6c394.5,13.4,720.1,23,723.9,21.1c3.8-1.9,143.6-329.4,310.2-727.7c168.5-398.3,319.8-739.2,339-758.4c55.5-53.6,141.7-70.9,218.3-45.9c36.4,13.4,316,199.2,620.5,411.7c306.4,214.5,564.9,394.5,578.3,398.3c13.4,5.7,312.1-189.6,666.4-434.7c413.7-283.4,666.4-446.2,706.7-453.9c86.2-13.4,176.2,36.4,220.2,124.5c19.2,38.3,149.4,348.5,289.2,689.4l254.7,616.6h168.5c93.8,0,448.1-9.6,790.9-21.1c697.1-23,710.5-21.1,771.8,109.1c32.6,65.1,30.6,84.3-95.8,796.7c-70.9,400.2-126.4,731.5-124.5,733.4c3.8,1.9,308.3,185.8,679.8,409.8C9753.2-966.6,9849-901.4,9875.8-844c49.8,103.4,24.9,183.8-93.8,310.2c-93.8,101.5-750.7,813.9-848.4,923l-44,49.8l344.7,702.8c379.2,777.5,388.8,804.3,293,911.6c-49.8,55.5-103.4,70.9-750.7,239.4c-383,99.6-700.9,183.8-706.6,191.5c-5.7,5.7-49.8,361.9-99.6,790.9c-49.8,429-99.6,798.6-113,821.6c-28.7,53.6-116.8,101.5-187.7,101.5c-30.6,0-352.4-99.6-714.3-220.2c-363.8-120.6-670.3-218.3-681.7-216.4c-13.4,3.8-235.6,268.1-494.1,589.8c-260.5,321.7-499.8,603.2-532.4,628.1C5185.9,5023.7,5118.9,5031.3,5049.9,5002.6z M3939.2,2204.8c337-61.3,607.1-296.8,737.3-639.6c61.3-158.9,74.7-501.7,28.7-677.9c-120.6-467.3-503.6-767.9-972.8-767.9c-448.1,0-825.4,302.6-942.2,756.4c-36.4,145.5-36.4,429,0,574.5C2926.2,1982.6,3412.6,2302.4,3939.2,2204.8z M6511.1,2122.4c67-65.1,70.9-76.6,70.9-189.6v-118.7L5415.7,205.5c-643.4-884.8-1246.7-1715.9-1342.4-1848c-210.6-289.2-266.2-331.3-407.9-321.7c-86.2,7.7-113,19.2-170.4,76.6c-90,90-107.2,218.3-46,333.2c21.1,40.2,628.1,884.7,1346.3,1874.8c865.6,1191.1,1330.9,1813.5,1375,1844.2c55.5,38.3,84.3,44.1,168.5,38.3C6424.9,2195.2,6451.7,2183.7,6511.1,2122.4z M6505.3,90.5c178.1-45.9,314.1-124.5,442.4-250.9c197.3-195.3,294.9-450,294.9-764.1c0-551.5-339-969-846.4-1047.5c-505.6-76.6-969,235.6-1097.3,741.1c-36.4,145.5-36.4,448.1,0,591.7C5440.6-95.2,5972.9,226.5,6505.3,90.5z"/><path d="M3609.8,1653.2c-160.9-74.7-247-271.9-231.7-528.5c17.2-258.5,147.5-438.5,337-463.4c229.8-30.6,406,185.8,406,501.7c0,235.5-95.8,417.5-258.5,490.2C3764.9,1697.3,3709.4,1697.3,3609.8,1653.2z"/><path d="M6095.5-459.1C5967.2-528,5896.3-664,5886.8-867c-11.5-208.7,28.7-348.5,132.1-457.7c141.7-157,337.1-160.9,478.8-11.5c201.1,210.7,164.7,706.7-61.3,856C6329.1-409.3,6202.8-401.6,6095.5-459.1z"/></g></g>
</svg>