<?xml version="1.0" encoding="utf-8"?>
<!-- Svg Vector Icons : http://www.onlinewebfonts.com/icon -->
<!DOCTYPE svg PUBLIC "-//W3C//DTD SVG 1.1//EN" "http://www.w3.org/Graphics/SVG/1.1/DTD/svg11.dtd">
<svg version="1.1" xmlns="http://www.w3.org/2000/svg" xmlns:xlink="http://www.w3.org/1999/xlink" x="0px" y="0px" viewBox="0 0 1000 1000" enable-background="new 0 0 1000 1000" xml:space="preserve">
<metadata> Svg Vector Icons : http://www.onlinewebfonts.com/icon </metadata>
<g><path d="M801.3,349.1c-51.9-50.7-103.6-101.4-155.5-152.1c-7.3-7.2-7.3-7.2-14.8,0.3C512.9,315.1,394.9,433,276.6,550.8c-5.7,5.7-9.2,11.8-11.4,19.5c-18.2,67.5-36.7,135.1-55,202.5c-1.6,6-3.3,11.8-4.9,18c0.3,6.9,5.1,3.2,7.7,2.5c73.2-20.3,146.3-40.7,219.5-60.9c5.5-1.6,9.7-4.3,13.7-8.2C564.6,606,683,487.7,801.3,369.6C811.7,359.3,811.7,359.3,801.3,349.1z M714.2,349.1c-44.7,44.6-89.3,89.3-133.9,134c-65.6,65.7-131.2,131.3-196.7,197.1c-4.6,4.7-9.6,7.7-15.8,9.4c-23.9,6.5-47.7,13.2-71.5,19.8c-3.2,0.9-7.4,3.3-7.2-2.9c6-21.8,12.4-42.7,17.2-64.1c3.3-14.8,10.8-25.6,21.3-36.1c98-97.5,195.6-195.4,293.3-293.2c9.8-9.8,19.9-19.1,29.7-28.9c3.5-3.6,6-3.3,9.8,0c18.9,17.1,36.3,35.9,54.9,53.5C720.4,342.7,718,345.5,714.2,349.1z M988.9,120.4C984,60.5,934.3,10.2,867.8,10c-32.7-0.1-61.3,12.2-84.8,35.4c-29.2,28.9-58.1,58.1-87.4,87.1c-4.7,4.6-4.9,7.4-0.1,12c18.8,17.6,37.2,35.4,55.7,53.2c35.8,34.6,71.5,69.3,107,104.1c4.2,4.2,6.6,4.5,10.9,0.2c28.6-29,57.6-57.5,86.2-86.5c22.8-23.1,33.3-51.5,34.6-85.4C989.8,128,989.3,124.2,988.9,120.4z M908.9,176.3c-14.2,14.5-28.7,28.7-43,43.2c-2.2,2.1-3.3,2-5.5-0.1c-17.7-17.4-35.5-34.7-53.4-52c-9.2-8.8-18.5-17.7-27.8-26.5c-2.4-2.3-2.3-3.8,0-6c14.6-14.5,29.1-29.1,43.7-43.5c11.7-11.5,26-17.6,42.2-17.6c33.2,0.2,58,25.2,60.4,55.1c0.2,1.9,0.4,3.8,0.6,4.8C925.6,150.6,920.3,164.7,908.9,176.3z M987.3,361.6c-2.5,0.7-4,2.9-5.7,4.7c-20.7,20.7-41.4,41.3-62.1,62c0.1,111.3,0.2,222.6-0.1,333.9c-0.2,47.4-17.6,87.9-53.3,119.5c-28.6,25.3-62.4,39-100.9,39c-177.7,0.2-355.5,0.2-533.2,0c-36.8-0.1-69.5-13-97.5-37c-37.2-32-55.4-72.8-55.4-121.8c0.1-174,0.1-348,0-521.9c-0.1-48.3,17.6-88.6,53.4-120.5c26.4-23.5,57.7-36.6,93.4-38.2c46-2.2,92-0.7,138-0.9c69-0.2,138-0.2,207-0.1c20.7-20.6,41.2-41.2,61.8-61.8c1.8-1.8,5.6-3.3,4.2-6.2c-1.1-2.2-4.7-1-7.1-1c-96.1-0.1-192.2-0.2-288.3,0c-53.6,0.2-107.1-1.5-160.7,1.1c-41.5,2-78,17.1-108.7,44.6C30.6,94,9.9,141,10,197.2c0.2,202.5,0.1,405.1,0.1,607.7c0,57.1,21.1,104.6,64.4,141.9c32.6,27.9,70.6,43,113.5,43c206.9,0.4,413.9,0.3,620.8,0.1c44.8,0,84.2-16,117.5-45.5c41.6-36.8,61.9-84,62.1-139.2c0.4-145.3,0.2-290.7,0.1-436C988.5,366.8,989.3,364.1,987.3,361.6z"/></g>
</svg>