<?xml version="1.0" encoding="utf-8"?>
<!-- Svg Vector Icons : http://www.onlinewebfonts.com/icon -->
<!DOCTYPE svg PUBLIC "-//W3C//DTD SVG 1.1//EN" "http://www.w3.org/Graphics/SVG/1.1/DTD/svg11.dtd">
<svg version="1.1" xmlns="http://www.w3.org/2000/svg" xmlns:xlink="http://www.w3.org/1999/xlink" x="0px" y="0px" viewBox="0 0 1000 1000" enable-background="new 0 0 1000 1000" xml:space="preserve">
<metadata> Svg Vector Icons : http://www.onlinewebfonts.com/icon </metadata>
<g><path d="M808.7,294.3c0-0.2-0.1-0.3-0.2-0.5c-73-129.2-214.2-219.2-373.2-219.2C200.4,74.7,10,265.1,10,500c0,203.9,143.5,374.3,334.9,415.7c29.1,6.3,59.4,9.6,90.4,9.6l0,0c13.3,0,24.1-10.8,24.1-24.1c0-13.3-10.8-24.1-24.1-24.1c-27.2,0-54.1-2.9-80.2-8.5C183,831.4,58.1,678.4,58.1,500c0-208.3,168.9-377.2,377.2-377.2c138.8,0,267.2,79.5,333,198.1c0.1,0.2,0.2,0.3,0.4,0.4c4.4,6.1,11.5,10.1,19.6,10.1c13.3,0,24.1-10.8,24.1-24.1C812.5,302.6,811.1,298.1,808.7,294.3L808.7,294.3L808.7,294.3z M616.3,785.4l273.6-376.6c15.6-21.5,45.8-26.2,67.3-10.5l12.7,9.3c21.6,15.7,26.5,45.7,10.8,67.3L707.2,851.5L616.3,785.4L616.3,785.4z M606.9,798.4l90.9,66L587.9,920L606.9,798.4L606.9,798.4z M258.8,427.8c31,0,56.2-25.2,56.2-56.2c0-31-25.2-56.2-56.2-56.2s-56.2,25.2-56.2,56.2C202.6,402.6,227.8,427.8,258.8,427.8L258.8,427.8z M595.8,427.8c31,0,56.2-25.2,56.2-56.2c0-31-25.2-56.2-56.2-56.2s-56.2,25.2-56.2,56.2C539.6,402.6,564.8,427.8,595.8,427.8L595.8,427.8z M211.9,597.3c28.7,98.5,119.3,167.5,223.5,167.5c103.9,0,194.3-68.7,223.2-166.8c5-17-4.7-34.9-21.7-39.9c-17-5-34.8,4.7-39.9,21.7c-20.9,71-86.5,120.8-161.7,120.8c-75.4,0-141.1-50-161.8-121.3c-5-17-22.8-26.8-39.8-21.8C216.7,562.4,206.9,580.3,211.9,597.3L211.9,597.3z"/></g>
</svg>