<?xml version="1.0" encoding="utf-8"?>
<!-- Svg Vector Icons : http://www.onlinewebfonts.com/icon -->
<!DOCTYPE svg PUBLIC "-//W3C//DTD SVG 1.1//EN" "http://www.w3.org/Graphics/SVG/1.1/DTD/svg11.dtd">
<svg version="1.1" xmlns="http://www.w3.org/2000/svg" xmlns:xlink="http://www.w3.org/1999/xlink" x="0px" y="0px" viewBox="0 0 1000 1000" enable-background="new 0 0 1000 1000" xml:space="preserve">
<metadata> Svg Vector Icons : http://www.onlinewebfonts.com/icon </metadata>
<g><path d="M131.1,959.8c-107.9,0-152-80-98.1-177.7l368.9-668.6c54-97.8,142.2-97.8,196.2,0L967,782.1c53.9,97.7,9.8,177.7-98.1,177.7H131.1z M549,344.1c0-28.3-21.9-51.3-49-51.3c-27.1,0-49,23-49,51.3v205.2c0,28.3,22,51.3,49,51.3c27.1,0,49-23,49-51.3V344.1z M549,754.6c0-28.3-21.9-51.3-49-51.3c-27.1,0-49,23-49,51.3c0,28.3,22,51.3,49,51.3C527.1,805.9,549,782.9,549,754.6"/></g>
</svg>