<?xml version="1.0" encoding="utf-8"?>
<!-- Svg Vector Icons : http://www.onlinewebfonts.com/icon -->
<!DOCTYPE svg PUBLIC "-//W3C//DTD SVG 1.1//EN" "http://www.w3.org/Graphics/SVG/1.1/DTD/svg11.dtd">
<svg version="1.1" xmlns="http://www.w3.org/2000/svg" xmlns:xlink="http://www.w3.org/1999/xlink" x="0px" y="0px" viewBox="0 0 1000 1000" enable-background="new 0 0 1000 1000" xml:space="preserve">
<metadata> Svg Vector Icons : http://www.onlinewebfonts.com/icon </metadata>
<g><g><path d="M491.7,149.6C199.7,149.6,10,354.2,10,354.2v407.1c0,0,137,61.6,338.6,82.3v-37.4H462v44c5.1,0,10.1,0.1,15.3,0.1c8.6,0,17.1,0,25.6-0.2v-44h113.4v38.1C830,826.4,990,773.7,990,773.7V354.2C990,354.2,811.9,149.6,491.7,149.6z M36.8,364.1c6.1-4.9,12.3-9.6,18.4-14.2l0.6,57.9c-6.5,4.3-12.9,8.7-19,13.1L36.8,364.1L36.8,364.1z M36.8,427.2c6.1-4.6,12.5-9,19.1-13.4l0.6,62.8c-6.6,3.4-13.2,6.8-19.7,10.3V427.2z M36.8,492.5c6.5-3.6,13.1-7.1,19.8-10.5l0.7,73.1c-7,3.2-13.9,6.6-20.5,10.1V492.5z M36.8,570.8c6.7-3.5,13.5-7,20.6-10.3l0.7,69.5c-7.1,1.7-14.2,3.6-21.3,5.4V570.8z M36.8,640.6c7.2-1.9,14.3-3.7,21.3-5.4l0.6,58.6c-7.3,0.2-14.6,0.5-21.9,0.8V640.6z M36.8,731.6v-32c7.4-0.3,14.7-0.6,22-0.8l0.4,41.2C44.9,734.9,36.8,731.6,36.8,731.6z M65,342.7c9.4-6.9,18.9-13.4,28.3-19.7l0.6,60.9c-9.7,5.2-19.1,10.6-28.3,16.1L65,342.7z M65.7,405.7c9.2-5.6,18.6-11.1,28.3-16.3l0.7,68.3c-9.5,4.2-19,8.6-28.3,13L65.7,405.7z M66.4,476.3c9.4-4.5,18.8-8.9,28.4-13.1l0.7,75.4c-9.6,3.7-19,7.5-28.4,11.5L66.4,476.3z M67.2,555.4c9.3-4.1,18.8-7.9,28.4-11.6l0.8,78c-9.3,2-18.8,4.2-28.4,6.4L67.2,555.4z M68,633.3c9.6-2.3,19.1-4.4,28.4-6.4l0.7,67.7c-9.4,0.2-18.9,0.4-28.5,0.7L68,633.3z M69.2,743.6l-0.5-43.4c9.6-0.3,19.1-0.5,28.5-0.7l0.5,53.7C87,749.6,77.4,746.4,69.2,743.6z M103.2,316.5c10.4-6.7,20.7-13.1,30.7-19.1l0.7,65.3c-10.3,4.8-20.6,9.8-30.8,15L103.2,316.5z M103.9,383.3c10.2-5.3,20.5-10.3,30.8-15.1l0.7,71.9c-10.2,4-20.5,8.2-30.8,12.6L103.9,383.3z M104.6,458.1c10.3-4.4,20.6-8.7,30.8-12.7l0.8,78.3c-10.2,3.3-20.5,6.9-30.8,10.6L104.6,458.1z M105.4,539.5c10.3-3.8,20.6-7.3,30.8-10.7l0.9,84.4c-10.1,1.9-20.4,3.9-30.9,6.2L105.4,539.5z M106.3,624.4c10.5-2.2,20.8-4.2,30.9-6.1l0.8,75.9c-10.1,0.1-20.4,0.1-30.9,0.3L106.3,624.4z M107.7,756.4l-0.6-57c10.5-0.1,20.8-0.2,30.9-0.3l0.7,66.7C127.7,762.6,117.3,759.4,107.7,756.4z M143.8,291.7c6.2-3.6,12.3-7,18.4-10.3l0.7,69c-6.1,2.6-12.2,5.2-18.4,7.9L143.8,291.7z M144.5,363.6c6.2-2.7,12.3-5.3,18.4-7.9l0.7,74.2c-6.1,2.2-12.2,4.5-18.4,6.8L144.5,363.6z M145.3,442c6.2-2.4,12.4-4.6,18.4-6.9l0.8,80.9c-6.1,1.7-12.2,3.5-18.4,5.4L145.3,442z M146.2,526.6c6.2-1.9,12.3-3.7,18.4-5.5l0.9,89c-6,1-12.2,2-18.4,3.2L146.2,526.6z M147.1,618.4c6.3-1.1,12.4-2.2,18.5-3.2l0.8,82.4c-6.1,0-12.2,0-18.5,0L147.1,618.4z M148.6,768.6l-0.7-66.2c6.3,0,12.5,0,18.5,0l0.7,71.3C160.8,772,154.7,770.3,148.6,768.6z M172,276c17.6-9.5,34.3-17.7,49.4-24.7l0.8,76.1c-15.5,5.7-32.2,12.2-49.4,19.4L172,276z M172.8,352.1c17.2-7.2,33.9-13.7,49.4-19.4l0.8,76.7c-15.4,5-32.1,10.7-49.5,17L172.8,352.1z M173.6,431.6c17.4-6.3,34-12,49.5-17l0.9,84.8c-15.4,3.8-32.2,8.2-49.5,13.1L173.6,431.6z M174.5,517.6c17.3-5,34-9.4,49.5-13.2l1,94.6c-15.3,2.1-31.9,4.7-49.6,7.6L174.5,517.6z M175.4,611.7c17.7-3,34.3-5.5,49.6-7.6l0.9,90.6c-15.2-0.3-31.8-0.5-49.7-0.6L175.4,611.7z M177.1,776.4l-0.8-77.3c17.8,0.1,34.5,0.3,49.7,0.6l0.9,88.7C209.6,784.5,192.9,780.5,177.1,776.4z M302.9,802.1c-22.6-3.2-44.8-7.3-66.1-11.7l-0.9-93.6c28.7,0.5,51.9,1.2,67,1.8V802.1z M302.9,693.6c-15.2-0.6-38.4-1.3-67.1-1.8l-1-90.6c27.7-3.8,51-6.4,68-8L302.9,693.6L302.9,693.6L302.9,693.6z M302.9,588.1c-17,1.6-40.3,4.2-68,8l-1-94.7c28.7-7,53-12,69-15V588.1z M302.9,481.4c-15.8,3-40.2,8-69,15l-0.9-84.8c29.2-9.5,53.8-16.6,69.9-21.1L302.9,481.4L302.9,481.4z M302.9,385.3c-15.9,4.4-40.6,11.5-70,21.1l-0.8-76.7c29.2-10.8,54.4-18.8,70.8-23.9L302.9,385.3L302.9,385.3z M302.9,300.6c-16.2,4.9-41.3,12.9-70.8,23.8l-0.8-77.6c43.1-19.5,71.6-28.7,71.6-28.7L302.9,300.6L302.9,300.6z M381.2,740.3V288.2c0-54.7,44.3-99,99-99h9.9c54.7,0,99,44.3,99,99v452.1H381.2z M742.9,790.4c-21.3,4.4-43.4,8.4-66.1,11.7V698.6c15.2-0.6,38.3-1.3,67-1.8L742.9,790.4z M743.9,691.8c-28.7,0.5-51.9,1.2-67.1,1.8V593.1c17,1.7,40.3,4.2,68,8L743.9,691.8z M744.9,596.2c-27.8-3.8-51.1-6.4-68.1-8.1V486.5c16,3,40.3,8,69,15L744.9,596.2z M745.9,496.4c-28.9-7-53.3-12-69.1-15v-90.9c16.1,4.4,40.7,11.6,70,21.1L745.9,496.4z M746.8,406.4c-29.5-9.6-54.1-16.7-70-21.1v-79.5c16.4,5,41.5,13.1,70.8,23.9L746.8,406.4z M747.7,324.4c-29.5-10.8-54.7-18.9-70.8-23.8v-82.6c0,0,28.6,9.2,71.6,28.7L747.7,324.4z M802.6,776.4c-15.8,4.1-32.5,8.1-49.7,11.9l0.9-88.6c15.2-0.3,31.8-0.5,49.6-0.6L802.6,776.4z M803.4,694.1c-17.8,0.1-34.5,0.3-49.6,0.6l0.9-90.6c15.3,2.1,31.9,4.6,49.6,7.6L803.4,694.1z M804.3,606.7c-17.7-3-34.3-5.5-49.6-7.6l1-94.7c15.5,3.8,32.2,8.2,49.5,13.2L804.3,606.7z M805.3,512.5c-17.3-5-34-9.4-49.5-13.1l0.9-84.8c15.4,5,32.1,10.7,49.4,17L805.3,512.5z M806.2,426.4c-17.4-6.3-34-12-49.4-17l0.8-76.7c15.6,5.7,32.3,12.2,49.5,19.4L806.2,426.4z M807,346.8c-17.2-7.2-33.9-13.7-49.4-19.4l0.8-76.1c15.1,7.1,31.8,15.3,49.4,24.7L807,346.8z M832.7,769c-6,1.7-12.2,3.4-18.5,5.1l0.7-71.2c6.1,0,12.2,0,18.5,0L832.7,769z M833.4,697.9c-6.3,0-12.5,0-18.5,0.1l0.8-82.4c6,1,12.2,2.1,18.5,3.2L833.4,697.9z M834.2,613.7c-6.3-1.1-12.4-2.2-18.5-3.2l0.9-89c6.1,1.7,12.2,3.5,18.4,5.4L834.2,613.7z M835.2,521.9c-6.2-1.9-12.3-3.7-18.4-5.5l0.8-80.9c6.1,2.2,12.2,4.5,18.5,6.9L835.2,521.9z M836.1,437.1c-6.2-2.3-12.4-4.6-18.4-6.8l0.8-74.2c6.1,2.5,12.2,5.2,18.4,7.9L836.1,437.1z M836.8,358.6c-6.2-2.7-12.3-5.4-18.4-7.9l0.7-69c6,3.3,12.2,6.7,18.4,10.3L836.8,358.6z M873.6,756.7c-9.6,3.1-20,6.2-31,9.4l0.7-66.7c10.1,0.1,20.4,0.1,30.9,0.3L873.6,756.7z M874.3,694.8c-10.6-0.2-20.9-0.3-30.9-0.3l0.8-75.9c10.1,1.9,20.4,4,30.9,6.1L874.3,694.8z M875,619.7c-10.5-2.2-20.8-4.2-30.9-6.1l0.9-84.3c10.3,3.3,20.5,6.9,30.8,10.7L875,619.7z M875.9,534.6c-10.2-3.8-20.6-7.3-30.8-10.6l0.8-78.2c10.2,4,20.5,8.3,30.8,12.7L875.9,534.6z M876.7,453.1c-10.3-4.4-20.6-8.6-30.8-12.6l0.7-71.9c10.3,4.8,20.6,9.8,30.8,15.1L876.7,453.1z M877.5,378.2c-10.2-5.2-20.5-10.2-30.8-15l0.7-65.4c10,6,20.4,12.4,30.7,19.1L877.5,378.2z M912.1,743.9c-8.2,2.9-17.8,6.1-28.6,9.6l0.5-53.7c9.4,0.2,18.9,0.3,28.5,0.6L912.1,743.9z M912.6,695.5c-9.6-0.3-19.1-0.4-28.5-0.6l0.7-67.7c9.4,2,18.8,4.2,28.4,6.4L912.6,695.5z M913.3,628.5c-9.6-2.3-19.1-4.4-28.4-6.4l0.8-78c9.6,3.7,19.1,7.6,28.4,11.6L913.3,628.5z M914.1,550.4c-9.3-4-18.8-7.9-28.4-11.5l0.8-75.4c9.5,4.2,19,8.6,28.3,13.1L914.1,550.4z M914.9,471.2c-9.4-4.5-18.8-8.9-28.4-13.1l0.7-68.3c9.6,5.2,19.1,10.7,28.3,16.3L914.9,471.2z M915.6,400.3c-9.2-5.6-18.7-10.9-28.3-16.1l0.6-60.9c9.4,6.3,18.9,12.8,28.3,19.7L915.6,400.3z M944.5,732c0,0-8.1,3.3-22.4,8.4l0.4-41.3c7.3,0.2,14.7,0.5,22,0.8V732L944.5,732z M944.5,695c-7.3-0.3-14.7-0.5-21.9-0.8l0.6-58.6c7.1,1.8,14.2,3.6,21.3,5.5V695z M944.5,635.9c-7.1-1.9-14.2-3.7-21.3-5.4l0.7-69.6c7.1,3.3,13.9,6.7,20.6,10.3L944.5,635.9L944.5,635.9z M944.5,565.6c-6.7-3.5-13.5-6.8-20.5-10.1l0.7-73.1c6.7,3.4,13.3,6.9,19.8,10.5L944.5,565.6L944.5,565.6z M944.5,487.2c-6.5-3.5-13-6.9-19.7-10.3l0.7-62.8c6.6,4.4,13,8.9,19.1,13.5L944.5,487.2L944.5,487.2z M944.5,421.4c-6.1-4.5-12.5-8.9-19-13.2l0.6-58c6.1,4.6,12.3,9.3,18.4,14.2L944.5,421.4L944.5,421.4z"/></g><g></g><g></g><g></g><g></g><g></g><g></g><g></g><g></g><g></g><g></g><g></g><g></g><g></g><g></g><g></g></g>
</svg>