<?xml version="1.0" encoding="utf-8"?>
<!-- Svg Vector Icons : http://www.onlinewebfonts.com/icon -->
<!DOCTYPE svg PUBLIC "-//W3C//DTD SVG 1.1//EN" "http://www.w3.org/Graphics/SVG/1.1/DTD/svg11.dtd">
<svg version="1.1" xmlns="http://www.w3.org/2000/svg" xmlns:xlink="http://www.w3.org/1999/xlink" x="0px" y="0px" viewBox="0 0 1000 1000" enable-background="new 0 0 1000 1000" xml:space="preserve">
<metadata> Svg Vector Icons : http://www.onlinewebfonts.com/icon </metadata>
<g><path d="M74.7,325.9h866v64.8h-866V325.9z"/><path d="M165.8,814.7c0-52.2,98.9-105.9,125.9-111.3c1-2.1,1.9-6.8,2.3-11.4c-6.2-6.9-21.2-25.7-26.9-50.1c-5.7-2.7-10.6-8.5-13.6-16.7c-4.3-11.5-4.6-27.4,3.6-37.7c0-0.2,0-0.4,0-0.5c-1.6-14.5-5.7-52.7,16.9-77.9c13.4-14.9,33.7-22.5,60.2-22.5c26.5,0,46.8,7.6,60.2,22.5c22.6,25.1,18.4,63.5,16.9,77.8c0,0.1,0,0.4,0,0.5c8.2,10.3,7.9,26.2,3.6,37.7c-3,8.2-7.9,14-13.6,16.7c-5.7,24.4-20.6,43.1-26.9,50.1c0.4,4.7,1.3,9.4,2.3,11.4c26.9,5.4,125.9,59.1,125.9,111.3v-1.6"/><path d="M938.2,948.7H61.8c-28.5,0-51.8-22-51.8-49V214.3c0-27,23.2-49,51.8-49h357.6v65.9H75.9v651.6h848.2V231.2h-340v-65.9h354.1c28.5,0,51.8,22,51.8,49v685.4C990,926.7,966.8,948.7,938.2,948.7z"/><path d="M566.9,390.7H433.1c-17.9,0-32.4-14.5-32.4-32.4V83.7c0-17.9,14.5-32.4,32.4-32.4h133.8c17.9,0,32.4,14.5,32.4,32.4v274.5C599.3,376.2,584.8,390.7,566.9,390.7z M465.5,325.9h68.9V116.2h-68.9V325.9z"/><path d="M565.3,555.9h196.5v64.8H565.3V555.9z"/><path d="M565.3,654.3h261.3v64.8H565.3V654.3z"/><path d="M565.3,457.6h261.1v64.8H565.3V457.6z"/></g>
</svg>