<?xml version="1.0" encoding="utf-8"?>
<!-- Svg Vector Icons : http://www.onlinewebfonts.com/icon -->
<!DOCTYPE svg PUBLIC "-//W3C//DTD SVG 1.1//EN" "http://www.w3.org/Graphics/SVG/1.1/DTD/svg11.dtd">
<svg version="1.1" xmlns="http://www.w3.org/2000/svg" xmlns:xlink="http://www.w3.org/1999/xlink" x="0px" y="0px" viewBox="0 0 1000 1000" enable-background="new 0 0 1000 1000" xml:space="preserve">
<metadata> Svg Vector Icons : http://www.onlinewebfonts.com/icon </metadata>
<g><path d="M393,687h343.6V505.9v-15h15h117.8h6.9l4.5,5.4l87.1,104.9l3.5,4.2v5.3V687h3.7H990v15v68.7v14.9h-14.9h-31.5c-3.3,7.7-8,14.7-13.9,20.5l-0.1,0c-11.8,11.8-28.1,19.1-46,19.1c-17.9,0-34.2-7.3-46-19.1l-0.1,0c-5.8-5.8-10.6-12.8-13.9-20.5H542.8c-3.3,7.7-8,14.7-13.9,20.5l-0.1,0c-11.8,11.8-28.1,19.1-46,19.1c-17.9,0-34.2-7.3-46-19.1l-0.1,0c-5.8-5.8-10.6-12.8-13.8-20.5H393H378v-14.9V702v-15H393L393,687z M480.5,436.9h-10v10v70.7v10h10H583h10v-10v-70.7v-10h-10H480.5L480.5,436.9z M573,456.8h-82.5v50.7H573V456.8L573,456.8z M480.5,540.4h-10v10V621v10h10H583h10v-10v-70.7v-10h-10H480.5L480.5,540.4z M573,560.3h-82.5v50.8H573V560.3L573,560.3z M339.9,436.9h-10v10v70.7v10h10h102.4h10v-10v-70.7v-10h-10H339.9L339.9,436.9z M432.4,456.8h-82.5v50.7h82.5V456.8L432.4,456.8z M339.9,540.4h-10v10V621v10h10h102.4h10v-10v-70.7v-10h-10H339.9L339.9,540.4z M432.4,560.3h-82.5v50.8h82.5V560.3L432.4,560.3z M202.1,436.9h102.5h10v10v70.7v10h-10H202.1h-10v-10v-70.7v-10H202.1L202.1,436.9z M294.6,456.8h-82.5v50.7h82.5V456.8L294.6,456.8z M202.1,540.4h102.5h10v10V621v10h-10H202.1h-10v-10v-70.7v-10H202.1L202.1,540.4z M294.6,560.3h-82.5v50.8h82.5V560.3L294.6,560.3z M202.1,641.9h102.5h10v10v70.7v10h-10H202.1h-10v-10v-70.7v-10H202.1L202.1,641.9z M294.6,661.9h-82.5v50.7h82.5V661.9L294.6,661.9z M718.3,434.7l29.4-51.9l-366.4-208l-2.5,4.4l-2.5-4.4L10,382.8l29.4,51.9l62.8-35.7v392h39.9V376.3l236.7-134.4l260.9,148.1v216h39.9V412.7L718.3,434.7L718.3,434.7z M948.7,755.7h11.4v-38.7h-27.7C941.7,727.4,947.7,740.8,948.7,755.7L948.7,755.7z M834.7,716.9H531.8c9.3,10.5,15.2,23.9,16.2,38.7h270.6C819.4,740.8,825.4,727.4,834.7,716.9L834.7,716.9z M901.5,742.1c-4.6-4.6-10.9-7.4-18-7.4c-7,0-13.4,2.8-18,7.4c-4.5,4.5-7.4,10.9-7.4,17.9c0,7,2.8,13.4,7.4,18c4.6,4.6,10.9,7.4,18,7.4c7,0,13.4-2.8,18-7.4c4.5-4.5,7.4-10.9,7.4-18C908.9,753,906.1,746.6,901.5,742.1L901.5,742.1z M433.9,716.9h-26v38.7h9.8C418.7,740.8,424.7,727.4,433.9,716.9L433.9,716.9z M500.8,742.1c-4.6-4.6-10.9-7.4-18-7.4c-7,0-13.4,2.8-17.9,7.4c-4.6,4.5-7.4,10.9-7.4,17.9c0,7,2.8,13.4,7.4,18c4.5,4.6,10.9,7.4,17.9,7.4c7,0,13.4-2.8,18-7.4c4.5-4.5,7.4-10.9,7.4-18C508.2,753,505.3,746.6,500.8,742.1L500.8,742.1z M941.5,644.7H798.7h-10v-10v-83.1v-10h10h80.9l-17.3-20.8h-95.9V687h175V644.7L941.5,644.7z M896.2,561.5h-87.5v63.2h132.8v-8.6L896.2,561.5z"/></g>
</svg>